<?xml version="1.0" encoding="UTF-8" standalone="no"?>
<svg
   xmlns:dc="http://purl.org/dc/elements/1.1/"
   xmlns:cc="http://creativecommons.org/ns#"
   xmlns:rdf="http://www.w3.org/1999/02/22-rdf-syntax-ns#"
   xmlns:svg="http://www.w3.org/2000/svg"
   xmlns="http://www.w3.org/2000/svg"
   id="svg10"
   preserveAspectRatio="xMidYMid meet"
   viewBox="0 0 383.99999 383.99999"
   height="512"
   width="512"
   version="1.0">
  <defs
     id="defs14" />
  <metadata
     id="metadata2">
Created by potrace 1.11, written by Peter Selinger 2001-2013
<rdf:RDF>
  <cc:Work
     rdf:about="">
    <dc:format>image/svg+xml</dc:format>
    <dc:type
       rdf:resource="http://purl.org/dc/dcmitype/StillImage" />
    <dc:title></dc:title>
  </cc:Work>
</rdf:RDF>
</metadata>
  <g
     style="fill:#f44133;fill-opacity:1"
     id="g8"
     stroke="none"
     fill="#000000"
     transform="matrix(0.05485714,0,0,-0.05485714,5e-6,383.99999)">
    <g
       id="g15">
      <g
         transform="matrix(2.9103272,0,0,2.9103272,14592.01,-12161.495)"
         id="g217">
        <rect
           style="fill:#f44133;fill-opacity:1;stroke-width:82.0312"
           id="rect17"
           width="2338.7849"
           height="2338.7849"
           x="-4980.6509"
           y="-6550.7446"
           transform="scale(1,-1)"
           ry="1169.3925" />
        <g
           transform="matrix(100.21783,0,0,-100.21783,-5013.8726,6583.9661)"
           id="g178"
           style="fill:none;fill-rule:evenodd;stroke:none;stroke-width:1">
          <polygon
             points="0,0 24,0 24,24 0,24 "
             id="Path" />
          <path
             fill="#ffffff"
             id="🔹-Icon-Color"
             d="m 13.81,2.86 c 0.17,-0.3 0,-0.7 -0.35,-0.74 C 10.84,1.75 8.16,2.4 6.02,3.98 5.83,4.13 5.77,4.41 5.9,4.63 l 3.01,5.22 c 0.19,0.33 0.67,0.33 0.87,0 z m 7.49,5.47 c -0.98,-2.47 -2.92,-4.46 -5.35,-5.5 -0.23,-0.1 -0.5,0 -0.63,0.22 L 12.31,8.26 C 12.12,8.58 12.36,9 12.75,9 h 8.08 c 0.35,0 0.6,-0.35 0.47,-0.67 z M 21.37,10 h -6.2 c -0.38,0 -0.63,0.42 -0.43,0.75 L 19,18.14 c 0.17,0.3 0.6,0.35 0.82,0.08 1.74,-2.18 2.48,-5.03 2.05,-7.79 C 21.84,10.18 21.62,10 21.37,10 Z M 4.18,5.79 C 2.45,7.98 1.7,10.81 2.13,13.58 2.16,13.82 2.38,14 2.63,14 h 6.2 c 0.38,0 0.63,-0.42 0.43,-0.75 L 5,5.87 C 4.82,5.57 4.39,5.52 4.18,5.79 Z M 2.7,15.67 c 0.98,2.47 2.92,4.46 5.35,5.5 0.23,0.1 0.5,0 0.63,-0.22 l 3.01,-5.21 c 0.19,-0.33 -0.05,-0.75 -0.43,-0.75 H 3.17 C 2.82,15 2.57,15.35 2.7,15.67 Z m 7.83,6.22 c 2.62,0.37 5.3,-0.28 7.44,-1.86 0.2,-0.15 0.26,-0.44 0.13,-0.66 l -3.01,-5.22 c -0.19,-0.33 -0.67,-0.33 -0.87,0 l -4.04,6.99 c -0.17,0.3 0.01,0.7 0.35,0.75 z" />
        </g>
      </g>
    </g>
  </g>
</svg>
