<?xml version="1.0" encoding="UTF-8" standalone="no"?>
<svg
   xmlns:dc="http://purl.org/dc/elements/1.1/"
   xmlns:cc="http://creativecommons.org/ns#"
   xmlns:rdf="http://www.w3.org/1999/02/22-rdf-syntax-ns#"
   xmlns:svg="http://www.w3.org/2000/svg"
   xmlns="http://www.w3.org/2000/svg"
   xmlns:sodipodi="http://sodipodi.sourceforge.net/DTD/sodipodi-0.dtd"
   xmlns:inkscape="http://www.inkscape.org/namespaces/inkscape"
   width="511.99997"
   height="511.99997"
   viewBox="0 0 135.46666 135.46666"
   version="1.1"
   id="svg271"
   inkscape:version="1.0 (4035a4fb49, 2020-05-01)"
   sodipodi:docname="logo_sin-fondo.svg">
  <defs
     id="defs265">
    <inkscape:path-effect
       effect="bspline"
       id="path-effect335"
       is_visible="true"
       lpeversion="1"
       weight="40"
       steps="2"
       helper_size="0"
       apply_no_weight="true"
       apply_with_weight="true"
       only_selected="false" />
    <inkscape:path-effect
       effect="bspline"
       id="path-effect331"
       is_visible="true"
       lpeversion="1"
       weight="29.8333"
       steps="1"
       helper_size="0"
       apply_no_weight="false"
       apply_with_weight="false"
       only_selected="true" />
    <inkscape:path-effect
       effect="knot"
       id="path-effect329"
       is_visible="true"
       lpeversion="1"
       switcher_size="17.7"
       interruption_width="5"
       prop_to_stroke_width="true"
       add_stroke_width="inkscape_1.0_and_up"
       both="false"
       inverse_width="false"
       add_other_stroke_width="inkscape_1.0_and_up"
       crossing_points_vector="" />
    <inkscape:path-effect
       effect="bspline"
       id="path-effect327"
       is_visible="true"
       lpeversion="1"
       weight="10.0333"
       steps="10"
       helper_size="51"
       apply_no_weight="true"
       apply_with_weight="true"
       only_selected="false" />
    <inkscape:path-effect
       effect="taper_stroke"
       id="path-effect325"
       is_visible="true"
       lpeversion="1"
       stroke_width="0.69873202"
       attach_start="0.2"
       end_offset="0.2"
       smoothing="7.7"
       jointype="extrapolated"
       miter_limit="100" />
    <clipPath
       clipPathUnits="userSpaceOnUse"
       id="clipPath304">
      <circle
         style="fill:#decd87;stroke-width:0.87426;stroke-linecap:round"
         id="circle306"
         cx="-170.38754"
         cy="124.12738"
         r="67.73333" />
    </clipPath>
  </defs>
  <sodipodi:namedview
     id="base"
     pagecolor="#ffffff"
     bordercolor="#666666"
     borderopacity="1.0"
     inkscape:pageopacity="0.0"
     inkscape:pageshadow="2"
     inkscape:zoom="0.70278478"
     inkscape:cx="236.84838"
     inkscape:cy="334.24775"
     inkscape:document-units="mm"
     inkscape:current-layer="layer1"
     inkscape:document-rotation="0"
     showgrid="false"
     lock-margins="true"
     fit-margin-top="0"
     fit-margin-left="0"
     fit-margin-right="0"
     fit-margin-bottom="0"
     units="px"
     inkscape:window-width="1920"
     inkscape:window-height="1016"
     inkscape:window-x="0"
     inkscape:window-y="0"
     inkscape:window-maximized="1" />
  <metadata
     id="metadata268">
    <rdf:RDF>
      <cc:Work
         rdf:about="">
        <dc:format>image/svg+xml</dc:format>
        <dc:type
           rdf:resource="http://purl.org/dc/dcmitype/StillImage" />
        <dc:title></dc:title>
      </cc:Work>
    </rdf:RDF>
  </metadata>
  <g
     inkscape:label="Capa 1"
     inkscape:groupmode="layer"
     id="layer1"
     transform="translate(-72.873817,79.072609)">
    <rect
       ry="0"
       y="-28.782846"
       x="95.74221"
       height="62.31218"
       width="89.530296"
       id="rect86"
       style="fill:#ffffff;stroke-width:17.8312;stroke-linecap:round" />
    <g
       style="fill:#f44133;fill-opacity:1"
       id="g8"
       stroke="none"
       fill="#000000"
       transform="matrix(0.01386262,0,0,-0.01386262,92.087976,37.17989)">
      <path
         style="fill:#f44133;fill-opacity:1"
         id="path4"
         d="M 135,6976 C 75,6948 48,6920 21,6860 L 0,6815 V 3500 185 L 21,140 C 48,80 75,52 135,24 L 185,0 h 3315 3315 l 50,24 c 60,28 87,56 114,116 l 21,45 v 3315 3315 l -24,50 c -28,60 -56,87 -116,114 l -45,21 H 3500 185 Z M 5928,2613 c 435,-1143 793,-2085 794,-2093 3,-13 -35,-15 -281,-18 -162,-1 -289,2 -294,7 -5,5 -93,247 -197,537 l -187,529 -945,3 -945,2 -190,-537 -191,-538 -296,-3 c -198,-1 -296,1 -296,8 0,6 349,925 776,2043 427,1117 785,2056 796,2085 l 19,52 h 323 323 z M 1469,2131 c 150,-47 242,-143 301,-316 l 17,-49 38,73 c 102,194 309,311 550,311 229,0 381,-119 439,-344 31,-117 37,-265 34,-786 l -3,-515 -62,-3 -61,-3 -5,588 c -4,625 -6,656 -56,767 -28,64 -93,130 -153,156 -40,17 -70,22 -137,21 -264,-2 -468,-149 -538,-387 -15,-52 -18,-126 -23,-599 l -5,-540 h -65 -65 l -6,600 c -6,655 -7,668 -66,778 -56,102 -145,148 -284,148 -205,-1 -408,-119 -493,-289 -10,-18 -27,-68 -38,-110 -21,-73 -22,-104 -26,-605 l -4,-528 -61,3 -62,3 -3,803 -2,802 h 65 65 v -147 -148 l 40,62 c 110,175 294,269 527,272 54,1 102,-5 142,-18 z" />
      <path
         style="fill:#f44133;fill-opacity:1"
         id="path6"
         d="m 4787,4064 c -89,-235 -737,-1999 -737,-2006 0,-4 344,-8 765,-8 421,0 765,3 765,6 0,5 -577,1569 -760,2058 -5,16 -13,5 -33,-50 z" />
    </g>
  </g>
</svg>
