<?xml version="1.0" encoding="UTF-8" standalone="no"?>
<svg
   xmlns:dc="http://purl.org/dc/elements/1.1/"
   xmlns:cc="http://creativecommons.org/ns#"
   xmlns:rdf="http://www.w3.org/1999/02/22-rdf-syntax-ns#"
   xmlns:svg="http://www.w3.org/2000/svg"
   xmlns="http://www.w3.org/2000/svg"
   version="1.0"
   width="512"
   height="512"
   viewBox="0 0 383.99999 383.99999"
   preserveAspectRatio="xMidYMid meet"
   id="svg10">
  <defs
     id="defs14" />
  <metadata
     id="metadata2">
Created by potrace 1.11, written by Peter Selinger 2001-2013
<rdf:RDF>
  <cc:Work
     rdf:about="">
    <dc:format>image/svg+xml</dc:format>
    <dc:type
       rdf:resource="http://purl.org/dc/dcmitype/StillImage" />
    <dc:title></dc:title>
  </cc:Work>
</rdf:RDF>
</metadata>
  <rect
     y="-4.9999999e-06"
     x="-4.9999999e-06"
     height="384"
     width="384"
     id="rect10"
     style="fill:#ffffff;fill-opacity:0.98;stroke-width:10.9867" />
  <g
     transform="matrix(0.05485714,0,0,-0.05485714,5e-6,383.99999)"
     fill="#000000"
     stroke="none"
     id="g8"
     style="fill:#f44133;fill-opacity:1">
    <path
       d="M 135,6976 C 75,6948 48,6920 21,6860 L 0,6815 V 3500 185 L 21,140 C 48,80 75,52 135,24 L 185,0 h 3315 3315 l 50,24 c 60,28 87,56 114,116 l 21,45 v 3315 3315 l -24,50 c -28,60 -56,87 -116,114 l -45,21 H 3500 185 Z M 5928,2613 c 435,-1143 793,-2085 794,-2093 3,-13 -35,-15 -281,-18 -162,-1 -289,2 -294,7 -5,5 -93,247 -197,537 l -187,529 -945,3 -945,2 -190,-537 -191,-538 -296,-3 c -198,-1 -296,1 -296,8 0,6 349,925 776,2043 427,1117 785,2056 796,2085 l 19,52 h 323 323 z M 1469,2131 c 150,-47 242,-143 301,-316 l 17,-49 38,73 c 102,194 309,311 550,311 229,0 381,-119 439,-344 31,-117 37,-265 34,-786 l -3,-515 -62,-3 -61,-3 -5,588 c -4,625 -6,656 -56,767 -28,64 -93,130 -153,156 -40,17 -70,22 -137,21 -264,-2 -468,-149 -538,-387 -15,-52 -18,-126 -23,-599 l -5,-540 h -65 -65 l -6,600 c -6,655 -7,668 -66,778 -56,102 -145,148 -284,148 -205,-1 -408,-119 -493,-289 -10,-18 -27,-68 -38,-110 -21,-73 -22,-104 -26,-605 l -4,-528 -61,3 -62,3 -3,803 -2,802 h 65 65 v -147 -148 l 40,62 c 110,175 294,269 527,272 54,1 102,-5 142,-18 z"
       id="path4"
       style="fill:#f44133;fill-opacity:1" />
    <path
       d="m 4787,4064 c -89,-235 -737,-1999 -737,-2006 0,-4 344,-8 765,-8 421,0 765,3 765,6 0,5 -577,1569 -760,2058 -5,16 -13,5 -33,-50 z"
       id="path6"
       style="fill:#f44133;fill-opacity:1" />
  </g>
</svg>
