<?xml version="1.0" encoding="UTF-8" standalone="no"?>
<svg
   xmlns:dc="http://purl.org/dc/elements/1.1/"
   xmlns:cc="http://creativecommons.org/ns#"
   xmlns:rdf="http://www.w3.org/1999/02/22-rdf-syntax-ns#"
   xmlns:svg="http://www.w3.org/2000/svg"
   xmlns="http://www.w3.org/2000/svg"
   xmlns:sodipodi="http://sodipodi.sourceforge.net/DTD/sodipodi-0.dtd"
   xmlns:inkscape="http://www.inkscape.org/namespaces/inkscape"
   inkscape:export-ydpi="13.5"
   inkscape:export-xdpi="13.5"
   inkscape:export-filename="/mnt/datos/websites/mialbum.ga/site/images/logo-72x72.png"
   inkscape:version="1.0 (4035a4fb49, 2020-05-01)"
   sodipodi:docname="logo2.svg"
   id="svg10"
   preserveAspectRatio="xMidYMid meet"
   viewBox="0 0 383.99999 383.99999"
   height="512"
   width="512"
   version="1.0">
  <sodipodi:namedview
     inkscape:current-layer="g217"
     inkscape:window-maximized="1"
     inkscape:window-y="27"
     inkscape:window-x="0"
     inkscape:cy="256"
     inkscape:cx="256"
     inkscape:zoom="0.8359375"
     showgrid="false"
     id="namedview9"
     inkscape:window-height="1016"
     inkscape:window-width="1920"
     inkscape:pageshadow="2"
     inkscape:pageopacity="0"
     guidetolerance="10"
     gridtolerance="10"
     objecttolerance="10"
     borderopacity="1"
     bordercolor="#666666"
     pagecolor="#ffffff" />
  <defs
     id="defs14" />
  <metadata
     id="metadata2">
Created by potrace 1.11, written by Peter Selinger 2001-2013
<rdf:RDF>
  <cc:Work
     rdf:about="">
    <dc:format>image/svg+xml</dc:format>
    <dc:type
       rdf:resource="http://purl.org/dc/dcmitype/StillImage" />
    <dc:title></dc:title>
  </cc:Work>
</rdf:RDF>
</metadata>
  <g
     style="fill:#f44133;fill-opacity:1"
     id="g8"
     stroke="none"
     fill="#000000"
     transform="matrix(0.05485714,0,0,-0.05485714,5e-6,383.99999)">
    <g
       id="g15">
      <g
         transform="matrix(2.9103272,0,0,2.9103272,14592.01,-12161.495)"
         id="g217">
        <rect
           inkscape:export-ydpi="13"
           inkscape:export-xdpi="13"
           rx="0"
           style="fill:#ffffff;fill-opacity:1;stroke:none;stroke-width:84.3616"
           id="rect17"
           width="2405.2278"
           height="2405.2278"
           x="-5013.8726"
           y="-6583.9658"
           transform="scale(1,-1)"
           ry="1202.6139" />
        <g
           inkscape:export-ydpi="13"
           inkscape:export-xdpi="13"
           transform="matrix(100.21783,0,0,-100.21783,-5013.8727,6583.966)"
           id="g178"
           style="fill:none;fill-rule:evenodd;stroke:none;stroke-width:1">
          <polygon
             points="24,24 0,24 0,0 24,0 "
             id="Path" />
          <path
             style="fill:#f44133;fill-opacity:1;stroke-width:1.05522"
             fill="#ffffff"
             id="🔹-Icon-Color"
             d="m 13.909513,2.3499725 c 0.179388,-0.3165673 0,-0.7386571 -0.369328,-0.7808661 C 10.775496,1.1786733 7.9474938,1.8645694 5.6893132,3.531824 5.4888206,3.6901076 5.425507,3.9855705 5.5626862,4.2177199 l 3.1762259,5.5082715 c 0.2004926,0.3482246 0.7070004,0.3482246 0.9180457,0 z m 7.903631,5.7720782 c -1.03412,-2.6064046 -3.081256,-4.7063014 -5.645451,-5.8037348 -0.242701,-0.1055223 -0.527612,0 -0.664792,0.2321493 L 12.326676,8.048185 c -0.200493,0.3376718 0.05276,0.7808659 0.464299,0.7808659 h 8.526214 c 0.369328,0 0.633135,-0.3693284 0.495955,-0.7070002 z m 0.07386,1.7622248 h -6.542392 c -0.400985,0 -0.664789,0.4431955 -0.453745,0.7914185 l 4.495256,7.79811 c 0.179388,0.316567 0.633134,0.369328 0.865284,0.08442 1.836091,-2.300389 2.616956,-5.307778 2.163209,-8.220198 C 22.382966,10.074219 22.15081,9.8842777 21.887004,9.8842777 Z M 3.7477001,5.4417804 C 1.9221618,7.752722 1.1307433,10.739009 1.5844899,13.661979 c 0.031656,0.253255 0.2638061,0.443195 0.5276122,0.443195 H 8.654494 c 0.4009854,0 0.6647915,-0.443195 0.4537467,-0.791418 L 4.6129842,5.5261983 C 4.4230438,5.2096309 3.9692972,5.1568698 3.7477001,5.4417804 Z M 2.1859678,15.867398 c 1.0341201,2.606406 3.0812557,4.706302 5.6454512,5.803736 0.2427016,0.105523 0.5276122,0 0.6647915,-0.23215 l 3.1762265,-5.49772 C 11.87293,15.593041 11.619673,15.149846 11.21869,15.149846 H 2.6819234 c -0.3693286,0.0106 -0.6331347,0.379881 -0.4959556,0.717552 z m 8.2624082,6.563497 c 2.764688,0.390433 5.59269,-0.295463 7.850871,-1.962717 0.211044,-0.158284 0.274359,-0.464299 0.137179,-0.696448 L 15.2602,14.263457 c -0.200492,-0.348223 -0.706999,-0.348223 -0.918046,0 l -4.263107,7.376021 c -0.1793877,0.316566 0.0106,0.738656 0.369329,0.791417 z" />
        </g>
      </g>
    </g>
  </g>
</svg>
